<mxfile host="app.diagrams.net" modified="2024-06-16T00:35:23.630Z" agent="Mozilla/5.0 (Windows NT 10.0; Win64; x64) AppleWebKit/537.36 (KHTML, like Gecko) Chrome/125.0.0.0 Safari/537.36" etag="I4VzsHagqsu6M3i2YyfZ" version="24.5.4" type="device">
  <diagram name="Page-1" id="kyfi-EZTu8HghcUlIK1G">
    <mxGraphModel dx="1050" dy="557" grid="1" gridSize="10" guides="1" tooltips="1" connect="1" arrows="1" fold="1" page="1" pageScale="1" pageWidth="850" pageHeight="1100" math="0" shadow="0">
      <root>
        <mxCell id="0" />
        <mxCell id="1" parent="0" />
        <mxCell id="lVjUpkjyuM7ssPIJtT68-1" value="" style="strokeWidth=1;shadow=0;dashed=0;align=center;html=1;shape=mxgraph.mockup.containers.browserWindow;rSize=0;strokeColor=#666666;strokeColor2=#008cff;strokeColor3=#c4c4c4;mainText=,;recursiveResize=0;" vertex="1" parent="1">
          <mxGeometry x="160" y="90" width="550" height="540" as="geometry" />
        </mxCell>
        <mxCell id="lVjUpkjyuM7ssPIJtT68-2" value="ChatBot HTH" style="strokeWidth=1;shadow=0;dashed=0;align=center;html=1;shape=mxgraph.mockup.containers.anchor;fontSize=17;fontColor=#666666;align=left;whiteSpace=wrap;" vertex="1" parent="lVjUpkjyuM7ssPIJtT68-1">
          <mxGeometry x="60" y="12" width="110" height="26" as="geometry" />
        </mxCell>
        <mxCell id="lVjUpkjyuM7ssPIJtT68-3" value="https://madhanqim.github.io/POSPER-BOT/" style="strokeWidth=1;shadow=0;dashed=0;align=center;html=1;shape=mxgraph.mockup.containers.anchor;rSize=0;fontSize=17;fontColor=#666666;align=left;" vertex="1" parent="lVjUpkjyuM7ssPIJtT68-1">
          <mxGeometry x="130" y="60" width="250" height="26" as="geometry" />
        </mxCell>
        <mxCell id="lVjUpkjyuM7ssPIJtT68-4" value="" style="whiteSpace=wrap;html=1;aspect=fixed;" vertex="1" parent="lVjUpkjyuM7ssPIJtT68-1">
          <mxGeometry x="100" y="140" width="350" height="350" as="geometry" />
        </mxCell>
        <mxCell id="lVjUpkjyuM7ssPIJtT68-5" value="" style="endArrow=none;html=1;rounded=0;entryX=0.001;entryY=0.142;entryDx=0;entryDy=0;entryPerimeter=0;exitX=1;exitY=0.138;exitDx=0;exitDy=0;exitPerimeter=0;" edge="1" parent="lVjUpkjyuM7ssPIJtT68-1" source="lVjUpkjyuM7ssPIJtT68-4" target="lVjUpkjyuM7ssPIJtT68-4">
          <mxGeometry width="50" height="50" relative="1" as="geometry">
            <mxPoint x="240" y="310" as="sourcePoint" />
            <mxPoint x="290" y="260" as="targetPoint" />
          </mxGeometry>
        </mxCell>
        <mxCell id="lVjUpkjyuM7ssPIJtT68-6" value="" style="verticalLabelPosition=bottom;shadow=0;dashed=0;align=center;html=1;verticalAlign=top;strokeWidth=1;shape=mxgraph.mockup.graphics.simpleIcon;strokeColor=#999999;" vertex="1" parent="lVjUpkjyuM7ssPIJtT68-1">
          <mxGeometry x="230" y="150" width="35" height="30" as="geometry" />
        </mxCell>
        <mxCell id="lVjUpkjyuM7ssPIJtT68-7" value="Chat Bot" style="text;html=1;align=center;verticalAlign=middle;whiteSpace=wrap;rounded=0;" vertex="1" parent="lVjUpkjyuM7ssPIJtT68-1">
          <mxGeometry x="265" y="150" width="60" height="30" as="geometry" />
        </mxCell>
        <mxCell id="lVjUpkjyuM7ssPIJtT68-8" value="LOGO" style="text;html=1;align=center;verticalAlign=middle;whiteSpace=wrap;rounded=0;" vertex="1" parent="lVjUpkjyuM7ssPIJtT68-1">
          <mxGeometry x="207.5" y="160" width="80" height="10" as="geometry" />
        </mxCell>
        <mxCell id="lVjUpkjyuM7ssPIJtT68-16" value="" style="verticalLabelPosition=bottom;shadow=0;dashed=0;align=center;html=1;verticalAlign=top;strokeWidth=1;shape=mxgraph.mockup.graphics.simpleIcon;strokeColor=#999999;" vertex="1" parent="lVjUpkjyuM7ssPIJtT68-1">
          <mxGeometry x="110" y="210" width="70" height="70" as="geometry" />
        </mxCell>
        <mxCell id="lVjUpkjyuM7ssPIJtT68-17" value="BUBLE MESSAGE" style="rounded=1;whiteSpace=wrap;html=1;" vertex="1" parent="lVjUpkjyuM7ssPIJtT68-1">
          <mxGeometry x="187.5" y="200" width="120" height="60" as="geometry" />
        </mxCell>
        <mxCell id="lVjUpkjyuM7ssPIJtT68-18" value="LOGO" style="text;html=1;align=center;verticalAlign=middle;whiteSpace=wrap;rounded=0;" vertex="1" parent="lVjUpkjyuM7ssPIJtT68-1">
          <mxGeometry x="107.5" y="240" width="80" height="10" as="geometry" />
        </mxCell>
        <mxCell id="lVjUpkjyuM7ssPIJtT68-20" value="" style="verticalLabelPosition=bottom;shadow=0;dashed=0;align=center;html=1;verticalAlign=top;strokeWidth=1;shape=mxgraph.mockup.graphics.simpleIcon;strokeColor=#999999;" vertex="1" parent="lVjUpkjyuM7ssPIJtT68-1">
          <mxGeometry x="370" y="290" width="70" height="70" as="geometry" />
        </mxCell>
        <mxCell id="lVjUpkjyuM7ssPIJtT68-36" value="LOGO" style="text;html=1;align=center;verticalAlign=middle;whiteSpace=wrap;rounded=0;" vertex="1" parent="lVjUpkjyuM7ssPIJtT68-1">
          <mxGeometry x="375" y="310" width="60" height="30" as="geometry" />
        </mxCell>
        <mxCell id="lVjUpkjyuM7ssPIJtT68-37" value="BUBLE MESSAGE" style="rounded=1;whiteSpace=wrap;html=1;" vertex="1" parent="lVjUpkjyuM7ssPIJtT68-1">
          <mxGeometry x="245" y="270" width="120" height="60" as="geometry" />
        </mxCell>
        <mxCell id="lVjUpkjyuM7ssPIJtT68-39" value="" style="endArrow=none;html=1;rounded=0;exitX=-0.006;exitY=0.834;exitDx=0;exitDy=0;exitPerimeter=0;entryX=1.005;entryY=0.827;entryDx=0;entryDy=0;entryPerimeter=0;" edge="1" parent="lVjUpkjyuM7ssPIJtT68-1">
          <mxGeometry width="50" height="50" relative="1" as="geometry">
            <mxPoint x="98.07000000000009" y="442.4500000000001" as="sourcePoint" />
            <mxPoint x="451.92" y="440.00000000000006" as="targetPoint" />
            <Array as="points">
              <mxPoint x="350.17" y="440.55" />
            </Array>
          </mxGeometry>
        </mxCell>
        <mxCell id="lVjUpkjyuM7ssPIJtT68-42" value="" style="rounded=1;whiteSpace=wrap;html=1;" vertex="1" parent="lVjUpkjyuM7ssPIJtT68-1">
          <mxGeometry x="110" y="450" width="230" height="30" as="geometry" />
        </mxCell>
        <mxCell id="lVjUpkjyuM7ssPIJtT68-43" value="Enter your message....." style="text;html=1;align=center;verticalAlign=middle;whiteSpace=wrap;rounded=0;" vertex="1" parent="lVjUpkjyuM7ssPIJtT68-1">
          <mxGeometry x="90" y="450" width="200" height="30" as="geometry" />
        </mxCell>
        <mxCell id="lVjUpkjyuM7ssPIJtT68-46" value="" style="verticalLabelPosition=bottom;shadow=0;dashed=0;align=center;html=1;verticalAlign=top;strokeWidth=1;shape=mxgraph.mockup.graphics.simpleIcon;strokeColor=#999999;" vertex="1" parent="lVjUpkjyuM7ssPIJtT68-1">
          <mxGeometry x="370" y="450" width="35" height="30" as="geometry" />
        </mxCell>
        <mxCell id="lVjUpkjyuM7ssPIJtT68-49" value="Send Button" style="text;html=1;align=center;verticalAlign=middle;whiteSpace=wrap;rounded=0;" vertex="1" parent="lVjUpkjyuM7ssPIJtT68-1">
          <mxGeometry x="357.5" y="450" width="60" height="30" as="geometry" />
        </mxCell>
      </root>
    </mxGraphModel>
  </diagram>
</mxfile>
